<svg width="160" height="41" viewBox="0 0 160 41" fill="none" xmlns="http://www.w3.org/2000/svg">
<path d="M59.5562 15.4559H53.9882V12.9119H68.2682V15.4559H62.6762V29.9999H59.5562V15.4559Z" fill="#233348"/>
<path d="M74.8211 17.5919C75.2851 17.5919 75.6851 17.6559 76.0211 17.7839L75.9971 20.5199C75.4851 20.3119 74.9571 20.2079 74.4131 20.2079C73.3891 20.2079 72.6051 20.5039 72.0611 21.0959C71.5331 21.6879 71.2691 22.4719 71.2691 23.4479V29.9999H68.2931V21.3119C68.2931 20.0319 68.2291 18.8879 68.1011 17.8799H70.9091L71.1491 20.0159C71.4531 19.2319 71.9331 18.6319 72.5891 18.2159C73.2451 17.7999 73.9891 17.5919 74.8211 17.5919Z" fill="#233348"/>
<path d="M89.0492 17.8799V29.9999H86.0972V28.0559C85.7292 28.7279 85.2012 29.2559 84.5132 29.6399C83.8252 30.0079 83.0412 30.1919 82.1612 30.1919C81.1052 30.1919 80.1692 29.9359 79.3532 29.4239C78.5372 28.9119 77.9052 28.1839 77.4572 27.2399C77.0092 26.2959 76.7852 25.1999 76.7852 23.9519C76.7852 22.7039 77.0092 21.5999 77.4572 20.6399C77.9212 19.6639 78.5612 18.9119 79.3772 18.3839C80.1932 17.8399 81.1212 17.5679 82.1612 17.5679C83.0412 17.5679 83.8252 17.7599 84.5132 18.1439C85.2012 18.5119 85.7292 19.0319 86.0972 19.7039V17.8799H89.0492ZM82.9772 27.8399C83.9692 27.8399 84.7372 27.4959 85.2812 26.8079C85.8252 26.1199 86.0972 25.1519 86.0972 23.9039C86.0972 22.6239 85.8252 21.6399 85.2812 20.9519C84.7372 20.2639 83.9612 19.9199 82.9532 19.9199C81.9612 19.9199 81.1852 20.2799 80.6252 20.9999C80.0812 21.7039 79.8092 22.6879 79.8092 23.9519C79.8092 25.1999 80.0812 26.1599 80.6252 26.8319C81.1852 27.5039 81.9692 27.8399 82.9772 27.8399Z" fill="#233348"/>
<path d="M98.0526 14.7119C96.7566 14.7119 96.1086 15.4239 96.1086 16.8479V17.8799H98.8206V20.1359H96.1086V29.9999H93.1086V20.1359H90.8046V17.8799H93.1086V16.7039C93.1086 15.2639 93.4686 14.1599 94.1886 13.3919C94.9246 12.6079 95.9726 12.2159 97.3326 12.2159C98.0846 12.2159 98.7166 12.3119 99.2286 12.5039V14.8799C98.7806 14.7679 98.3886 14.7119 98.0526 14.7119Z" fill="#233348"/>
<path d="M112.604 17.8799V29.9999H109.652V28.0559C109.284 28.7279 108.756 29.2559 108.068 29.6399C107.38 30.0079 106.596 30.1919 105.716 30.1919C104.66 30.1919 103.724 29.9359 102.908 29.4239C102.092 28.9119 101.46 28.1839 101.012 27.2399C100.564 26.2959 100.34 25.1999 100.34 23.9519C100.34 22.7039 100.564 21.5999 101.012 20.6399C101.476 19.6639 102.116 18.9119 102.932 18.3839C103.748 17.8399 104.676 17.5679 105.716 17.5679C106.596 17.5679 107.38 17.7599 108.068 18.1439C108.756 18.5119 109.284 19.0319 109.652 19.7039V17.8799H112.604ZM106.532 27.8399C107.524 27.8399 108.292 27.4959 108.836 26.8079C109.38 26.1199 109.652 25.1519 109.652 23.9039C109.652 22.6239 109.38 21.6399 108.836 20.9519C108.292 20.2639 107.516 19.9199 106.508 19.9199C105.516 19.9199 104.74 20.2799 104.18 20.9999C103.636 21.7039 103.364 22.6879 103.364 23.9519C103.364 25.1999 103.636 26.1599 104.18 26.8319C104.74 27.5039 105.524 27.8399 106.532 27.8399Z" fill="#233348"/>
<path d="M115.871 12.3359H118.847V29.9999H115.871V12.3359Z" fill="#233348"/>
<path d="M133.841 17.8799V29.6159C133.841 31.5039 133.321 32.9359 132.281 33.9119C131.241 34.8879 129.713 35.3759 127.697 35.3759C125.825 35.3759 124.177 34.9839 122.753 34.1999L123.233 31.9199C124.705 32.6879 126.169 33.0719 127.625 33.0719C129.785 33.0719 130.865 31.9999 130.865 29.8559V27.4559C130.497 28.1119 129.961 28.6479 129.257 29.0639C128.553 29.4639 127.761 29.6639 126.881 29.6639C125.825 29.6639 124.881 29.4159 124.049 28.9199C123.233 28.4079 122.593 27.6959 122.129 26.7839C121.681 25.8559 121.457 24.7999 121.457 23.6159C121.457 22.4319 121.681 21.3839 122.129 20.4719C122.593 19.5439 123.233 18.8319 124.049 18.3359C124.881 17.8239 125.825 17.5679 126.881 17.5679C127.777 17.5679 128.569 17.7599 129.257 18.1439C129.961 18.5119 130.497 19.0319 130.865 19.7039V17.8799H133.841ZM127.673 27.3119C128.665 27.3119 129.441 26.9839 130.001 26.3279C130.577 25.6719 130.865 24.7679 130.865 23.6159C130.865 22.4639 130.585 21.5599 130.025 20.9039C129.465 20.2479 128.681 19.9199 127.673 19.9199C126.681 19.9199 125.897 20.2479 125.321 20.9039C124.761 21.5599 124.481 22.4639 124.481 23.6159C124.481 24.7679 124.761 25.6719 125.321 26.3279C125.897 26.9839 126.681 27.3119 127.673 27.3119Z" fill="#233348"/>
<path d="M148.674 17.8799V29.9999H145.722V28.0559C145.354 28.7279 144.826 29.2559 144.138 29.6399C143.45 30.0079 142.666 30.1919 141.786 30.1919C140.73 30.1919 139.794 29.9359 138.978 29.4239C138.162 28.9119 137.53 28.1839 137.082 27.2399C136.634 26.2959 136.41 25.1999 136.41 23.9519C136.41 22.7039 136.634 21.5999 137.082 20.6399C137.546 19.6639 138.186 18.9119 139.002 18.3839C139.818 17.8399 140.746 17.5679 141.786 17.5679C142.666 17.5679 143.45 17.7599 144.138 18.1439C144.826 18.5119 145.354 19.0319 145.722 19.7039V17.8799H148.674ZM142.602 27.8399C143.594 27.8399 144.362 27.4959 144.906 26.8079C145.45 26.1199 145.722 25.1519 145.722 23.9039C145.722 22.6239 145.45 21.6399 144.906 20.9519C144.362 20.2639 143.586 19.9199 142.578 19.9199C141.586 19.9199 140.81 20.2799 140.25 20.9999C139.706 21.7039 139.434 22.6879 139.434 23.9519C139.434 25.1999 139.706 26.1599 140.25 26.8319C140.81 27.5039 141.594 27.8399 142.602 27.8399Z" fill="#233348"/>
<path d="M158.47 17.5919C158.934 17.5919 159.334 17.6559 159.67 17.7839L159.646 20.5199C159.134 20.3119 158.606 20.2079 158.062 20.2079C157.038 20.2079 156.254 20.5039 155.71 21.0959C155.182 21.6879 154.918 22.4719 154.918 23.4479V29.9999H151.942V21.3119C151.942 20.0319 151.878 18.8879 151.75 17.8799H154.558L154.798 20.0159C155.102 19.2319 155.582 18.6319 156.238 18.2159C156.894 17.7999 157.638 17.5919 158.47 17.5919Z" fill="#233348"/>
<path d="M41.7002 20.5C41.7002 31.8218 32.522 41 21.2002 41C9.87836 41 0.700195 31.8218 0.700195 20.5C0.700195 9.17816 9.87836 0 21.2002 0C32.522 0 41.7002 9.17816 41.7002 20.5Z" fill="#458FF6"/>
<path d="M20.0442 15.244H14.0122V12.488H29.4822V15.244H23.4242V31H20.0442V15.244Z" fill="white"/>
</svg>
