<svg width="102" height="89" viewBox="0 0 102 89" fill="none" xmlns="http://www.w3.org/2000/svg">
<g opacity="0.26">
<mask id="mask0_1_143" style="mask-type:alpha" maskUnits="userSpaceOnUse" x="0" y="0" width="11" height="11">
<path d="M5.5094 10.425C8.39695 10.425 10.7378 8.09121 10.7378 5.21245C10.7378 2.33368 8.39695 0 5.5094 0C2.62184 0 0.281006 2.33368 0.281006 5.21245C0.281006 8.09121 2.62184 10.425 5.5094 10.425Z" fill="url(#paint0_linear_1_143)"/>
</mask>
<g mask="url(#mask0_1_143)">
<path d="M5.5094 10.425C8.39695 10.425 10.7378 8.09121 10.7378 5.21245C10.7378 2.33368 8.39695 0 5.5094 0C2.62184 0 0.281006 2.33368 0.281006 5.21245C0.281006 8.09121 2.62184 10.425 5.5094 10.425Z" fill="url(#paint1_linear_1_143)"/>
</g>
<mask id="mask1_1_143" style="mask-type:alpha" maskUnits="userSpaceOnUse" x="30" y="0" width="12" height="11">
<path d="M35.7904 10.425C38.678 10.425 41.0188 8.09121 41.0188 5.21245C41.0188 2.33368 38.678 0 35.7904 0C32.9028 0 30.562 2.33368 30.562 5.21245C30.562 8.09121 32.9028 10.425 35.7904 10.425Z" fill="url(#paint2_linear_1_143)"/>
</mask>
<g mask="url(#mask1_1_143)">
<path d="M35.7904 10.425C38.678 10.425 41.0188 8.09121 41.0188 5.21245C41.0188 2.33368 38.678 0 35.7904 0C32.9028 0 30.562 2.33368 30.562 5.21245C30.562 8.09121 32.9028 10.425 35.7904 10.425Z" fill="url(#paint3_linear_1_143)"/>
</g>
<mask id="mask2_1_143" style="mask-type:alpha" maskUnits="userSpaceOnUse" x="60" y="0" width="12" height="11">
<path d="M66.0715 10.425C68.9591 10.425 71.2999 8.09121 71.2999 5.21245C71.2999 2.33368 68.9591 0 66.0715 0C63.184 0 60.8431 2.33368 60.8431 5.21245C60.8431 8.09121 63.184 10.425 66.0715 10.425Z" fill="url(#paint4_linear_1_143)"/>
</mask>
<g mask="url(#mask2_1_143)">
<path d="M66.0715 10.425C68.9591 10.425 71.2999 8.09121 71.2999 5.21245C71.2999 2.33368 68.9591 0 66.0715 0C63.184 0 60.8431 2.33368 60.8431 5.21245C60.8431 8.09121 63.184 10.425 66.0715 10.425Z" fill="url(#paint5_linear_1_143)"/>
</g>
<mask id="mask3_1_143" style="mask-type:alpha" maskUnits="userSpaceOnUse" x="91" y="0" width="11" height="11">
<path d="M96.3526 10.425C99.2402 10.425 101.581 8.09121 101.581 5.21245C101.581 2.33368 99.2402 0 96.3526 0C93.4651 0 91.1243 2.33368 91.1243 5.21245C91.1243 8.09121 93.4651 10.425 96.3526 10.425Z" fill="url(#paint6_linear_1_143)"/>
</mask>
<g mask="url(#mask3_1_143)">
<path d="M96.3526 10.425C99.2402 10.425 101.581 8.09121 101.581 5.21245C101.581 2.33368 99.2402 0 96.3526 0C93.4651 0 91.1243 2.33368 91.1243 5.21245C91.1243 8.09121 93.4651 10.425 96.3526 10.425Z" fill="url(#paint7_linear_1_143)"/>
</g>
<mask id="mask4_1_143" style="mask-type:alpha" maskUnits="userSpaceOnUse" x="0" y="26" width="11" height="11">
<path d="M5.5094 36.5958C8.39695 36.5958 10.7378 34.2621 10.7378 31.3833C10.7378 28.5046 8.39695 26.1709 5.5094 26.1709C2.62184 26.1709 0.281006 28.5046 0.281006 31.3833C0.281006 34.2621 2.62184 36.5958 5.5094 36.5958Z" fill="url(#paint8_linear_1_143)"/>
</mask>
<g mask="url(#mask4_1_143)">
<path d="M5.5094 36.5958C8.39695 36.5958 10.7378 34.2621 10.7378 31.3833C10.7378 28.5046 8.39695 26.1709 5.5094 26.1709C2.62184 26.1709 0.281006 28.5046 0.281006 31.3833C0.281006 34.2621 2.62184 36.5958 5.5094 36.5958Z" fill="url(#paint9_linear_1_143)"/>
</g>
<mask id="mask5_1_143" style="mask-type:alpha" maskUnits="userSpaceOnUse" x="30" y="26" width="12" height="11">
<path d="M35.7904 36.5958C38.678 36.5958 41.0188 34.2621 41.0188 31.3833C41.0188 28.5046 38.678 26.1709 35.7904 26.1709C32.9028 26.1709 30.562 28.5046 30.562 31.3833C30.562 34.2621 32.9028 36.5958 35.7904 36.5958Z" fill="url(#paint10_linear_1_143)"/>
</mask>
<g mask="url(#mask5_1_143)">
<path d="M35.7904 36.5958C38.678 36.5958 41.0188 34.2621 41.0188 31.3833C41.0188 28.5046 38.678 26.1709 35.7904 26.1709C32.9028 26.1709 30.562 28.5046 30.562 31.3833C30.562 34.2621 32.9028 36.5958 35.7904 36.5958Z" fill="url(#paint11_linear_1_143)"/>
</g>
<mask id="mask6_1_143" style="mask-type:alpha" maskUnits="userSpaceOnUse" x="60" y="26" width="12" height="11">
<path d="M66.0715 36.5958C68.9591 36.5958 71.2999 34.2621 71.2999 31.3833C71.2999 28.5046 68.9591 26.1709 66.0715 26.1709C63.184 26.1709 60.8431 28.5046 60.8431 31.3833C60.8431 34.2621 63.184 36.5958 66.0715 36.5958Z" fill="url(#paint12_linear_1_143)"/>
</mask>
<g mask="url(#mask6_1_143)">
<path d="M66.0715 36.5958C68.9591 36.5958 71.2999 34.2621 71.2999 31.3833C71.2999 28.5046 68.9591 26.1709 66.0715 26.1709C63.184 26.1709 60.8431 28.5046 60.8431 31.3833C60.8431 34.2621 63.184 36.5958 66.0715 36.5958Z" fill="url(#paint13_linear_1_143)"/>
</g>
<mask id="mask7_1_143" style="mask-type:alpha" maskUnits="userSpaceOnUse" x="91" y="26" width="11" height="11">
<path d="M96.3526 36.5958C99.2402 36.5958 101.581 34.2621 101.581 31.3833C101.581 28.5046 99.2402 26.1709 96.3526 26.1709C93.4651 26.1709 91.1243 28.5046 91.1243 31.3833C91.1243 34.2621 93.4651 36.5958 96.3526 36.5958Z" fill="url(#paint14_linear_1_143)"/>
</mask>
<g mask="url(#mask7_1_143)">
<path d="M96.3526 36.5958C99.2402 36.5958 101.581 34.2621 101.581 31.3833C101.581 28.5046 99.2402 26.1709 96.3526 26.1709C93.4651 26.1709 91.1243 28.5046 91.1243 31.3833C91.1243 34.2621 93.4651 36.5958 96.3526 36.5958Z" fill="url(#paint15_linear_1_143)"/>
</g>
<mask id="mask8_1_143" style="mask-type:alpha" maskUnits="userSpaceOnUse" x="0" y="52" width="11" height="11">
<path d="M5.5094 62.7124C8.39695 62.7124 10.7378 60.3787 10.7378 57.5C10.7378 54.6212 8.39695 52.2875 5.5094 52.2875C2.62184 52.2875 0.281006 54.6212 0.281006 57.5C0.281006 60.3787 2.62184 62.7124 5.5094 62.7124Z" fill="url(#paint16_linear_1_143)"/>
</mask>
<g mask="url(#mask8_1_143)">
<path d="M5.5094 62.7124C8.39695 62.7124 10.7378 60.3787 10.7378 57.5C10.7378 54.6212 8.39695 52.2875 5.5094 52.2875C2.62184 52.2875 0.281006 54.6212 0.281006 57.5C0.281006 60.3787 2.62184 62.7124 5.5094 62.7124Z" fill="url(#paint17_linear_1_143)"/>
</g>
<mask id="mask9_1_143" style="mask-type:alpha" maskUnits="userSpaceOnUse" x="30" y="52" width="12" height="11">
<path d="M35.7904 62.7124C38.678 62.7124 41.0188 60.3787 41.0188 57.5C41.0188 54.6212 38.678 52.2875 35.7904 52.2875C32.9028 52.2875 30.562 54.6212 30.562 57.5C30.562 60.3787 32.9028 62.7124 35.7904 62.7124Z" fill="url(#paint18_linear_1_143)"/>
</mask>
<g mask="url(#mask9_1_143)">
<path d="M35.7904 62.7124C38.678 62.7124 41.0188 60.3787 41.0188 57.5C41.0188 54.6212 38.678 52.2875 35.7904 52.2875C32.9028 52.2875 30.562 54.6212 30.562 57.5C30.562 60.3787 32.9028 62.7124 35.7904 62.7124Z" fill="url(#paint19_linear_1_143)"/>
</g>
<mask id="mask10_1_143" style="mask-type:alpha" maskUnits="userSpaceOnUse" x="60" y="52" width="12" height="11">
<path d="M66.0715 62.7124C68.9591 62.7124 71.2999 60.3787 71.2999 57.5C71.2999 54.6212 68.9591 52.2875 66.0715 52.2875C63.184 52.2875 60.8431 54.6212 60.8431 57.5C60.8431 60.3787 63.184 62.7124 66.0715 62.7124Z" fill="url(#paint20_linear_1_143)"/>
</mask>
<g mask="url(#mask10_1_143)">
<path d="M66.0715 62.7124C68.9591 62.7124 71.2999 60.3787 71.2999 57.5C71.2999 54.6212 68.9591 52.2875 66.0715 52.2875C63.184 52.2875 60.8431 54.6212 60.8431 57.5C60.8431 60.3787 63.184 62.7124 66.0715 62.7124Z" fill="url(#paint21_linear_1_143)"/>
</g>
<mask id="mask11_1_143" style="mask-type:alpha" maskUnits="userSpaceOnUse" x="91" y="52" width="11" height="11">
<path d="M96.3526 62.7124C99.2402 62.7124 101.581 60.3787 101.581 57.5C101.581 54.6212 99.2402 52.2875 96.3526 52.2875C93.4651 52.2875 91.1243 54.6212 91.1243 57.5C91.1243 60.3787 93.4651 62.7124 96.3526 62.7124Z" fill="url(#paint22_linear_1_143)"/>
</mask>
<g mask="url(#mask11_1_143)">
<path d="M96.3526 62.7124C99.2402 62.7124 101.581 60.3787 101.581 57.5C101.581 54.6212 99.2402 52.2875 96.3526 52.2875C93.4651 52.2875 91.1243 54.6212 91.1243 57.5C91.1243 60.3787 93.4651 62.7124 96.3526 62.7124Z" fill="url(#paint23_linear_1_143)"/>
</g>
<mask id="mask12_1_143" style="mask-type:alpha" maskUnits="userSpaceOnUse" x="0" y="78" width="11" height="11">
<path d="M5.5094 88.8833C8.39695 88.8833 10.7378 86.5496 10.7378 83.6708C10.7378 80.7921 8.39695 78.4584 5.5094 78.4584C2.62184 78.4584 0.281006 80.7921 0.281006 83.6708C0.281006 86.5496 2.62184 88.8833 5.5094 88.8833Z" fill="url(#paint24_linear_1_143)"/>
</mask>
<g mask="url(#mask12_1_143)">
<path d="M5.5094 88.8833C8.39695 88.8833 10.7378 86.5496 10.7378 83.6708C10.7378 80.7921 8.39695 78.4584 5.5094 78.4584C2.62184 78.4584 0.281006 80.7921 0.281006 83.6708C0.281006 86.5496 2.62184 88.8833 5.5094 88.8833Z" fill="url(#paint25_linear_1_143)"/>
</g>
<mask id="mask13_1_143" style="mask-type:alpha" maskUnits="userSpaceOnUse" x="30" y="78" width="12" height="11">
<path d="M35.7904 88.8833C38.678 88.8833 41.0188 86.5496 41.0188 83.6708C41.0188 80.7921 38.678 78.4584 35.7904 78.4584C32.9028 78.4584 30.562 80.7921 30.562 83.6708C30.562 86.5496 32.9028 88.8833 35.7904 88.8833Z" fill="url(#paint26_linear_1_143)"/>
</mask>
<g mask="url(#mask13_1_143)">
<path d="M36.2283 88.425C39.1158 88.425 41.4567 86.0912 41.4567 83.2124C41.4567 80.3337 39.1158 78 36.2283 78C33.3407 78 30.9999 80.3337 30.9999 83.2124C30.9999 86.0912 33.3407 88.425 36.2283 88.425Z" fill="url(#paint27_linear_1_143)"/>
</g>
<mask id="mask14_1_143" style="mask-type:alpha" maskUnits="userSpaceOnUse" x="60" y="78" width="12" height="11">
<path d="M66.0715 88.8833C68.9591 88.8833 71.2999 86.5496 71.2999 83.6708C71.2999 80.7921 68.9591 78.4584 66.0715 78.4584C63.184 78.4584 60.8431 80.7921 60.8431 83.6708C60.8431 86.5496 63.184 88.8833 66.0715 88.8833Z" fill="url(#paint28_linear_1_143)"/>
</mask>
<g mask="url(#mask14_1_143)">
<path d="M66.0715 88.8833C68.9591 88.8833 71.2999 86.5496 71.2999 83.6708C71.2999 80.7921 68.9591 78.4584 66.0715 78.4584C63.184 78.4584 60.8431 80.7921 60.8431 83.6708C60.8431 86.5496 63.184 88.8833 66.0715 88.8833Z" fill="url(#paint29_linear_1_143)"/>
</g>
<mask id="mask15_1_143" style="mask-type:alpha" maskUnits="userSpaceOnUse" x="91" y="78" width="11" height="11">
<path d="M96.3526 88.8833C99.2402 88.8833 101.581 86.5496 101.581 83.6708C101.581 80.7921 99.2402 78.4584 96.3526 78.4584C93.4651 78.4584 91.1243 80.7921 91.1243 83.6708C91.1243 86.5496 93.4651 88.8833 96.3526 88.8833Z" fill="url(#paint30_linear_1_143)"/>
</mask>
<g mask="url(#mask15_1_143)">
<path d="M96.3526 88.8833C99.2402 88.8833 101.581 86.5496 101.581 83.6708C101.581 80.7921 99.2402 78.4584 96.3526 78.4584C93.4651 78.4584 91.1243 80.7921 91.1243 83.6708C91.1243 86.5496 93.4651 88.8833 96.3526 88.8833Z" fill="url(#paint31_linear_1_143)"/>
</g>
</g>
<defs>
<linearGradient id="paint0_linear_1_143" x1="55.2771" y1="131.134" x2="-16.1246" y2="-50.67" gradientUnits="userSpaceOnUse">
<stop stop-color="white"/>
<stop offset="1" stop-color="white"/>
</linearGradient>
<linearGradient id="paint1_linear_1_143" x1="55.2771" y1="131.134" x2="-16.1246" y2="-50.67" gradientUnits="userSpaceOnUse">
<stop stop-color="white"/>
<stop offset="1" stop-color="white"/>
</linearGradient>
<linearGradient id="paint2_linear_1_143" x1="85.5581" y1="131.134" x2="14.1565" y2="-50.67" gradientUnits="userSpaceOnUse">
<stop stop-color="white"/>
<stop offset="1" stop-color="white"/>
</linearGradient>
<linearGradient id="paint3_linear_1_143" x1="85.5581" y1="131.134" x2="14.1565" y2="-50.67" gradientUnits="userSpaceOnUse">
<stop stop-color="white"/>
<stop offset="1" stop-color="white"/>
</linearGradient>
<linearGradient id="paint4_linear_1_143" x1="115.839" y1="131.134" x2="44.4376" y2="-50.67" gradientUnits="userSpaceOnUse">
<stop stop-color="white"/>
<stop offset="1" stop-color="white"/>
</linearGradient>
<linearGradient id="paint5_linear_1_143" x1="115.839" y1="131.134" x2="44.4376" y2="-50.67" gradientUnits="userSpaceOnUse">
<stop stop-color="white"/>
<stop offset="1" stop-color="white"/>
</linearGradient>
<linearGradient id="paint6_linear_1_143" x1="146.12" y1="131.134" x2="74.7187" y2="-50.67" gradientUnits="userSpaceOnUse">
<stop stop-color="white"/>
<stop offset="1" stop-color="white"/>
</linearGradient>
<linearGradient id="paint7_linear_1_143" x1="146.12" y1="131.134" x2="74.7187" y2="-50.67" gradientUnits="userSpaceOnUse">
<stop stop-color="white"/>
<stop offset="1" stop-color="white"/>
</linearGradient>
<linearGradient id="paint8_linear_1_143" x1="55.2771" y1="157.303" x2="-16.1233" y2="-24.4991" gradientUnits="userSpaceOnUse">
<stop stop-color="white"/>
<stop offset="1" stop-color="white"/>
</linearGradient>
<linearGradient id="paint9_linear_1_143" x1="55.2771" y1="157.303" x2="-16.1233" y2="-24.4991" gradientUnits="userSpaceOnUse">
<stop stop-color="white"/>
<stop offset="1" stop-color="white"/>
</linearGradient>
<linearGradient id="paint10_linear_1_143" x1="85.5581" y1="157.303" x2="14.1577" y2="-24.4991" gradientUnits="userSpaceOnUse">
<stop stop-color="white"/>
<stop offset="1" stop-color="white"/>
</linearGradient>
<linearGradient id="paint11_linear_1_143" x1="85.5581" y1="157.303" x2="14.1577" y2="-24.4991" gradientUnits="userSpaceOnUse">
<stop stop-color="white"/>
<stop offset="1" stop-color="white"/>
</linearGradient>
<linearGradient id="paint12_linear_1_143" x1="115.839" y1="157.303" x2="44.4388" y2="-24.4991" gradientUnits="userSpaceOnUse">
<stop stop-color="white"/>
<stop offset="1" stop-color="white"/>
</linearGradient>
<linearGradient id="paint13_linear_1_143" x1="115.839" y1="157.303" x2="44.4388" y2="-24.4991" gradientUnits="userSpaceOnUse">
<stop stop-color="white"/>
<stop offset="1" stop-color="white"/>
</linearGradient>
<linearGradient id="paint14_linear_1_143" x1="146.12" y1="157.303" x2="74.7199" y2="-24.4991" gradientUnits="userSpaceOnUse">
<stop stop-color="white"/>
<stop offset="1" stop-color="white"/>
</linearGradient>
<linearGradient id="paint15_linear_1_143" x1="146.12" y1="157.303" x2="74.7199" y2="-24.4991" gradientUnits="userSpaceOnUse">
<stop stop-color="white"/>
<stop offset="1" stop-color="white"/>
</linearGradient>
<linearGradient id="paint16_linear_1_143" x1="55.2771" y1="183.421" x2="-16.1246" y2="1.61743" gradientUnits="userSpaceOnUse">
<stop stop-color="white"/>
<stop offset="1" stop-color="white"/>
</linearGradient>
<linearGradient id="paint17_linear_1_143" x1="55.2771" y1="183.421" x2="-16.1246" y2="1.61743" gradientUnits="userSpaceOnUse">
<stop stop-color="white"/>
<stop offset="1" stop-color="white"/>
</linearGradient>
<linearGradient id="paint18_linear_1_143" x1="85.5581" y1="183.421" x2="14.1565" y2="1.61743" gradientUnits="userSpaceOnUse">
<stop stop-color="white"/>
<stop offset="1" stop-color="white"/>
</linearGradient>
<linearGradient id="paint19_linear_1_143" x1="85.5581" y1="183.421" x2="14.1565" y2="1.61743" gradientUnits="userSpaceOnUse">
<stop stop-color="white"/>
<stop offset="1" stop-color="white"/>
</linearGradient>
<linearGradient id="paint20_linear_1_143" x1="115.839" y1="183.421" x2="44.4376" y2="1.61743" gradientUnits="userSpaceOnUse">
<stop stop-color="white"/>
<stop offset="1" stop-color="white"/>
</linearGradient>
<linearGradient id="paint21_linear_1_143" x1="115.839" y1="183.421" x2="44.4376" y2="1.61743" gradientUnits="userSpaceOnUse">
<stop stop-color="white"/>
<stop offset="1" stop-color="white"/>
</linearGradient>
<linearGradient id="paint22_linear_1_143" x1="146.12" y1="183.421" x2="74.7187" y2="1.61743" gradientUnits="userSpaceOnUse">
<stop stop-color="white"/>
<stop offset="1" stop-color="white"/>
</linearGradient>
<linearGradient id="paint23_linear_1_143" x1="146.12" y1="183.421" x2="74.7187" y2="1.61743" gradientUnits="userSpaceOnUse">
<stop stop-color="white"/>
<stop offset="1" stop-color="white"/>
</linearGradient>
<linearGradient id="paint24_linear_1_143" x1="55.2771" y1="209.592" x2="-16.1246" y2="27.7883" gradientUnits="userSpaceOnUse">
<stop stop-color="white"/>
<stop offset="1" stop-color="white"/>
</linearGradient>
<linearGradient id="paint25_linear_1_143" x1="55.2771" y1="209.592" x2="-16.1246" y2="27.7883" gradientUnits="userSpaceOnUse">
<stop stop-color="white"/>
<stop offset="1" stop-color="white"/>
</linearGradient>
<linearGradient id="paint26_linear_1_143" x1="85.5581" y1="209.592" x2="14.1565" y2="27.7883" gradientUnits="userSpaceOnUse">
<stop stop-color="white"/>
<stop offset="1" stop-color="white"/>
</linearGradient>
<linearGradient id="paint27_linear_1_143" x1="85.9959" y1="209.134" x2="14.5943" y2="27.33" gradientUnits="userSpaceOnUse">
<stop stop-color="white"/>
<stop offset="1" stop-color="white"/>
</linearGradient>
<linearGradient id="paint28_linear_1_143" x1="115.839" y1="209.592" x2="44.4376" y2="27.7883" gradientUnits="userSpaceOnUse">
<stop stop-color="white"/>
<stop offset="1" stop-color="white"/>
</linearGradient>
<linearGradient id="paint29_linear_1_143" x1="115.839" y1="209.592" x2="44.4376" y2="27.7883" gradientUnits="userSpaceOnUse">
<stop stop-color="white"/>
<stop offset="1" stop-color="white"/>
</linearGradient>
<linearGradient id="paint30_linear_1_143" x1="146.12" y1="209.592" x2="74.7187" y2="27.7883" gradientUnits="userSpaceOnUse">
<stop stop-color="white"/>
<stop offset="1" stop-color="white"/>
</linearGradient>
<linearGradient id="paint31_linear_1_143" x1="146.12" y1="209.592" x2="74.7187" y2="27.7883" gradientUnits="userSpaceOnUse">
<stop stop-color="white"/>
<stop offset="1" stop-color="white"/>
</linearGradient>
</defs>
</svg>
